<svg id="Layer_1" data-name="Layer 1" xmlns="http://www.w3.org/2000/svg" viewBox="0 0 24 24"><defs><style>.cls-1{fill:#f5f5f5;}</style></defs><title>insta_trans</title><path class="cls-1" d="M12,7.89A4.11,4.11,0,1,0,16.11,12,4.11,4.11,0,0,0,12,7.89Zm0,6.78A2.67,2.67,0,1,1,14.67,12,2.68,2.68,0,0,1,12,14.67Z"/><circle class="cls-1" cx="16.27" cy="7.73" r="0.96"/><path class="cls-1" d="M15.3,4.05c-.86,0-1.13,0-3.3,0s-2.44,0-3.3,0C5.8,4.18,4.18,5.79,4.05,8.7,4,9.56,4,9.83,4,12s0,2.45,0,3.3C4.18,18.2,5.79,19.82,8.7,20c.86,0,1.13.05,3.3.05s2.44,0,3.3-.05c2.9-.13,4.52-1.74,4.65-4.65,0-.85.05-1.13.05-3.3S20,9.56,20,8.7C19.82,5.8,18.21,4.18,15.3,4.05Zm3.21,11.18c-.1,2.15-1.11,3.18-3.28,3.28-.84,0-1.09,0-3.23,0s-2.39,0-3.23,0c-2.18-.1-3.18-1.13-3.28-3.28,0-.84,0-1.09,0-3.23s0-2.39,0-3.23c.1-2.15,1.11-3.18,3.28-3.28.84,0,1.09,0,3.23,0s2.39,0,3.23,0c2.17.1,3.18,1.13,3.28,3.28,0,.84,0,1.09,0,3.23S18.55,14.39,18.51,15.23Z"/></svg>
