<svg id="Layer_1" data-name="Layer 1" xmlns="http://www.w3.org/2000/svg" viewBox="0 0 24 24"><defs><style>.cls-1{fill:#c3add9;}</style></defs><title>insta_purple</title><path class="cls-1" d="M14.67,12A2.67,2.67,0,1,1,12,9.33,2.68,2.68,0,0,1,14.67,12Zm3.84-3.23c0,.84,0,1.09,0,3.23s0,2.39,0,3.23c-.1,2.15-1.11,3.18-3.28,3.28-.84,0-1.09,0-3.23,0s-2.39,0-3.23,0c-2.18-.1-3.18-1.13-3.28-3.28,0-.84,0-1.09,0-3.23s0-2.39,0-3.23c.1-2.15,1.11-3.18,3.28-3.28.84,0,1.09,0,3.23,0s2.39,0,3.23,0C17.4,5.59,18.41,6.62,18.51,8.77ZM16.11,12A4.11,4.11,0,1,0,12,16.11,4.11,4.11,0,0,0,16.11,12Zm1.12-4.27a1,1,0,1,0-1,1A1,1,0,0,0,17.23,7.73ZM24,0V24H0V0ZM20,12c0-2.17,0-2.44-.05-3.3-.13-2.9-1.74-4.52-4.65-4.65-.86,0-1.13,0-3.3,0s-2.44,0-3.3,0C5.8,4.18,4.18,5.79,4.05,8.7,4,9.56,4,9.83,4,12s0,2.44,0,3.3C4.18,18.2,5.79,19.82,8.7,20c.86,0,1.13.05,3.3.05s2.44,0,3.3-.05c2.9-.13,4.52-1.74,4.65-4.65C20,14.45,20,14.17,20,12Z"/></svg>
