<svg id="Layer_1" data-name="Layer 1" xmlns="http://www.w3.org/2000/svg" width="1247" height="853" viewBox="0 0 1247 853"><defs><style>.cls-1{fill:none;stroke:#000;stroke-miterlimit:10;stroke-width:20px;}</style></defs><title>logo_uden_baggrund_sort</title><polyline class="cls-1" points="561 716 1099 791 1026 649"/><polyline class="cls-1" points="213.78 551.21 738 37 749.06 60.1 939.9 458.7"/><path d="M253.51,315l65.53-9.3.2,146.41L407,439.65l.07,51.83L253.79,513.23Z"/><path d="M424.83,290.67l65.52-9.3.28,198.24-65.53,9.3Z"/><path d="M510,461l21-51.7c18.34,8.44,42.78,12,64.16,9,18.6-2.64,25.26-7.55,25.25-14.35,0-24.92-107.46,10.44-107.56-63.48,0-36.81,30.17-71.13,90.42-79.68,26.1-3.71,53-1.87,73.33,6.87L657,318.89c-19.17-7.19-37.23-9.44-54.16-7-19.16,2.72-25.26,9.25-25.25,16,0,23.79,107.46-11.29,107.56,61.78.05,36.25-30.17,71.13-90.42,79.68C562.27,474,529.49,470.41,510,461Z"/><path d="M837.1,395.87l-73.86,10.49-13,36.4-66.64,9.46,84.69-210.3,64.42-9.15L917.94,419l-67.74,9.61ZM819,350.29l-19-47.16-18.81,52.52Z"/><path d="M955.89,525.2l-19.34,2.74L936.6,566,956,563.26c14.62-2.07,21.58-10.26,21.57-22.1S970.52,523.12,955.89,525.2Z"/><path d="M275.59,620.14c-19.57,2.78-35.29,20.33-35.26,45.63s15.8,38.39,35.38,35.61S311,681.05,311,655.75,295.17,617.36,275.59,620.14Z"/><polygon points="775.32 603.3 805.91 598.96 790.56 560.27 775.32 603.3"/><path d="M1227,399.38,16.5,571.21,19,816.2,1229.41,644.37ZM113.56,765l-53.09,7.53-.23-162.48,128-18.17.06,41.32-74.92,10.63,0,27.85,65.69-9.32.06,41.32L113.49,713Zm162.21-19.32c-51.29,7.29-88.91-23.13-89-72.34s37.45-90.28,88.74-97.56,88.91,23.13,89,72.34S327.06,738.43,275.77,745.71Zm155.9-22.13c-26.32,3.74-52.88.78-68.64-7l17-42.35c14.86,7,34.67,9.94,52,7.48,15.07-2.14,20.47-6.16,20.46-11.73,0-20.42-87.07,8.42-87.15-52.17,0-30.17,24.45-58.26,73.26-65.19,21.15-3,43-1.45,59.41,5.73l-15.91,42c-15.54-5.92-30.17-7.79-43.89-5.84-15.52,2.2-20.46,7.55-20.46,13.12,0,19.5,87.07-9.11,87.15,50.78C505,688.11,480.49,716.66,431.67,723.58Zm546.21-81.24-26.83-37.06-14.39,2.05.05,40.85-50.62,7.19h0l-54.89,7.79-10.61-26.82-59.84,8.49-10.53,29.82L698.7,682h0l-48.37,6.86-.55-74-34.11,64.28-23.4,3.32-34.27-52,.1,71.49-48.37,6.87-.23-162.48,43.65-6.2,51.41,79.3,49.82-93.67L698,519.55l.65,156.62,66.17-166.11,52.19-7.4,66.58,147.22-.21-156.65,75.81-10.76c43.87-6.22,71.8,13.49,71.85,51.09,0,23.45-10.74,42.62-29.63,55.29l33.14,45.44Zm165.8-23.54-39.44-48.26-11.91,15.38.06,40.16-52.19,7.41L1040,471l52.19-7.41.09,59,51.66-66.31,57.81-8.2-62.89,80.43,66.27,81.6Z"/><line class="cls-1" x1="738" y1="37" x2="942.21" y2="465.19"/></svg>
