<svg id="Layer_1" data-name="Layer 1" xmlns="http://www.w3.org/2000/svg" viewBox="0 0 1247 853"><defs><style>.cls-1{fill:none;stroke:#fff;stroke-linecap:round;stroke-miterlimit:10;stroke-width:10px;}.cls-2{font-size:283.2px;font-family:Montserrat-Black, Montserrat;font-weight:800;}.cls-2,.cls-3{fill:#fff;}</style></defs><title>logo_white</title><polygon class="cls-1" points="617.79 16.59 134.96 569.41 37 592 44 795 529.49 728.21 988.3 811.82 925.04 676.04 1215 634 1215 426 831.4 475.05 617.79 16.59"/><text class="cls-2" transform="matrix(0.98, -0.14, 0, 1, 134.96, 526.48)">LISA</text><path class="cls-3" d="M293.49,622.59a30.6,30.6,0,0,0-17.89-2.45,37.56,37.56,0,0,0-17.88,7.53,43.35,43.35,0,0,0-12.69,16,50.49,50.49,0,0,0-4.7,22.14q0,12.3,4.76,20.8a28.75,28.75,0,0,0,12.73,12.35,30.42,30.42,0,0,0,17.89,2.45,37.44,37.44,0,0,0,17.88-7.53,43.34,43.34,0,0,0,12.69-16A50.49,50.49,0,0,0,311,655.75q0-12.3-4.75-20.8A28.93,28.93,0,0,0,293.49,622.59Z"/><polygon class="cls-3" points="775.32 603.3 805.91 598.96 790.56 560.28 775.32 603.3"/><path class="cls-3" d="M972.1,527.89q-5.4-4.21-16.2-2.69L936.55,528,936.6,566,956,563.27q10.8-1.54,16.19-7.29t5.38-14.81Q977.51,532.11,972.1,527.89Z"/><path class="cls-3" d="M1227,399.38,16.5,571.21,19,816.2,1229.41,644.37ZM113.56,765l-53.09,7.53-.23-162.48,128-18.16.06,41.31-74.92,10.63,0,27.86,65.69-9.33.06,41.32L113.49,713Zm207.86-36.71a106.34,106.34,0,0,1-45.65,17.39q-25.42,3.62-45.68-4.42a65.7,65.7,0,0,1-31.77-25.79q-11.49-17.75-11.53-42.12A93.09,93.09,0,0,1,198.2,628a98.83,98.83,0,0,1,31.68-34.8,106.52,106.52,0,0,1,45.65-17.39q25.43-3.6,45.69,4.43A65.71,65.71,0,0,1,353,606q11.5,17.76,11.53,42.13a93,93,0,0,1-11.41,45.38A98.72,98.72,0,0,1,321.42,728.32Zm175.23-41q-8.31,13.61-24.83,23.26t-40.15,13a156.87,156.87,0,0,1-38.14.89Q375,722.58,363,716.61l17-42.35a93.73,93.73,0,0,0,25.22,7.22,92.59,92.59,0,0,0,26.77.26q11-1.56,15.75-4.44c3.14-1.92,4.72-4.34,4.71-7.28q0-5.12-6.19-6.79T426,660.55a205.91,205.91,0,0,1-30.38-4.16,43,43,0,0,1-21.17-11.85q-9-9-9-26.69a55,55,0,0,1,8.29-29q8.29-13.71,24.83-23.26t40.14-12.89a139.15,139.15,0,0,1,31.84-.92A86.63,86.63,0,0,1,498,558.39l-15.91,42q-23.19-8.77-43.89-5.84-20.48,2.91-20.46,13.12,0,4.88,6.09,6.45t20,2.38a185.36,185.36,0,0,1,30.38,3.7,43.83,43.83,0,0,1,21.5,11.69q9.14,8.92,9.15,26.56A54.39,54.39,0,0,1,496.65,687.31Zm481.23-45-26.82-37.06-14.4,2.05.05,40.85-53.09,7.54h0l-52.41,7.44-10.62-26.82-59.84,8.49-10.53,29.82L698.7,682h0l-48.37,6.86-.55-74-34.11,64.28-23.4,3.32-34.27-52,.1,71.49-48.37,6.87-.23-162.48,43.65-6.19,51.41,79.29,49.82-93.66,43.64-6.2.66,156.61,66.16-166.09L817,502.66l66.58,147.22-.21-156.64,75.81-10.76q21.82-3.11,38,2t25,17.81q8.79,12.68,8.82,31.25a64.87,64.87,0,0,1-7.6,31.49,67.23,67.23,0,0,1-22,23.79l33.14,45.44Zm165.8-23.54-39.44-48.26-11.9,15.39.05,40.15-52.19,7.41L1040,471l52.2-7.41.08,59,51.66-66.3,57.81-8.21-62.89,80.43,66.27,81.6Z"/></svg>
