<svg id="Layer_1" data-name="Layer 1" xmlns="http://www.w3.org/2000/svg" viewBox="0 0 1366 768"><title>splash_txt</title><path d="M969.49,451.1H953.83V481h15.66q8.73,0,13.1-3.92T987,466q0-7.09-4.37-11T969.49,451.1Z"/><path d="M397.92,453.74a28.67,28.67,0,0,0-28.94,0,28,28,0,0,0-10.28,11.1,39,39,0,0,0,0,33.67A28,28,0,0,0,369,509.61a28.73,28.73,0,0,0,28.94,0,28.1,28.1,0,0,0,10.28-11.1,39,39,0,0,0,0-33.67A28.1,28.1,0,0,0,397.92,453.74Z"/><polygon points="814.42 492.23 839.17 492.23 826.8 460.2 814.42 492.23"/><polygon points="888.66 275.24 871.12 320.63 906.19 320.63 888.66 275.24"/><path d="M0,0V768H1366V0ZM919.09,215.41,998,395.93H935.08L923,364.47h-68.6l-12.12,31.46h-61.9l78.92-180.52Zm-378.84,0h60.87V395.93H540.25Zm-159.11,0H442V348.74h81.49v47.19H381.14Zm-77.23,235h-60.6v21.84h53.14v32.4H243.31v40.76H200.36V418H303.91ZM446.06,516a64.27,64.27,0,0,1-25.67,23.75q-16.38,8.55-36.94,8.56t-36.95-8.56a65.31,65.31,0,0,1,0-116.11q16.38-8.56,36.95-8.56t36.94,8.56A66.42,66.42,0,0,1,446.06,516Zm125,11.1q-6.74,9.74-20.11,15.47t-32.49,5.74a134,134,0,0,1-30.85-3.55q-15-3.56-24.66-9.56l13.83-31.3a88,88,0,0,0,20.39,8.46,79.79,79.79,0,0,0,21.66,3.19q8.91,0,12.74-1.73c2.54-1.16,3.82-2.88,3.82-5.19q0-4-5-6a107.42,107.42,0,0,0-16.47-4.36,187,187,0,0,1-24.57-6.65,41.81,41.81,0,0,1-17.11-11.65Q465,471.86,465,458a37.77,37.77,0,0,1,6.74-21.84q6.72-9.82,20.11-15.47t32.49-5.64a118.05,118.05,0,0,1,25.75,2.82,80.64,80.64,0,0,1,22.29,8.28l-12.92,31.13q-18.75-9.46-35.49-9.47-16.56,0-16.56,8,0,3.82,4.91,5.73t16.2,4.1a165.83,165.83,0,0,1,24.57,6.28,42.75,42.75,0,0,1,17.38,11.55q7.38,8,7.37,21.84A37.35,37.35,0,0,1,571.09,527.08Zm133.22,18.29L704,487.32l-27.66,46.59H657.36l-27.67-44.59v56.05H590.56V418h35.31l41.5,67.89L707.77,418h35.31l.36,127.4Zm-6.49-145.31a189.47,189.47,0,0,1-43.71-5q-21.29-5-34.94-13.54l19.59-44.36a125,125,0,0,0,28.89,12,112.85,112.85,0,0,0,30.69,4.51q12.63,0,18-2.45t5.41-7.35q0-5.67-7.09-8.51t-23.34-6.19a264.68,264.68,0,0,1-34.81-9.41,59.33,59.33,0,0,1-24.24-16.51Q622,291.75,622,272.15a53.54,53.54,0,0,1,9.54-30.95q9.54-13.92,28.5-21.92t46-8a167.41,167.41,0,0,1,36.49,4A114.36,114.36,0,0,1,774.15,227l-18.3,44.1q-26.58-13.41-50.29-13.41-23.47,0-23.47,11.34,0,5.42,7,8.13t23,5.8a235.21,235.21,0,0,1,34.82,8.9,60.67,60.67,0,0,1,24.63,16.37q10.44,11.36,10.44,30.95A53,53,0,0,1,772.35,370q-9.54,13.78-28.5,21.92T697.82,400.06ZM859.56,545.37,851,523.17H802.59L794,545.37H750.36L806.05,418h42.22L904,545.37Zm127.58,0-21.66-32H953.83v32h-43V418h61.34q17.64,0,30.75,5.83a45.34,45.34,0,0,1,20.21,16.74q7.1,10.92,7.09,25.48,0,13.65-6.18,23.84a43.71,43.71,0,0,1-17.84,16.2L1033,545.37Zm143.05,0-31.85-42.22-9.65,10.74v31.48h-42.22V418h42.22V464.2L1130.55,418h46.78l-51,56.06,53.51,71.34Z"/></svg>
